<?xml version="1.0" encoding="UTF-8"?>
<!DOCTYPE svg PUBLIC "-//W3C//DTD SVG 1.1//EN" "http://www.w3.org/Graphics/SVG/1.1/DTD/svg11.dtd">
<svg xmlns="http://www.w3.org/2000/svg" version="1.1" width="818px" height="159px" style="shape-rendering:geometricPrecision; text-rendering:geometricPrecision; image-rendering:optimizeQuality; fill-rule:evenodd; clip-rule:evenodd" xmlns:xlink="http://www.w3.org/1999/xlink">
<g><path style="opacity:1" fill="#105aa5" d="M 557.5,4.5 C 557.5,54.1667 557.5,103.833 557.5,153.5C 421.833,153.5 286.167,153.5 150.5,153.5C 150.5,103.833 150.5,54.1667 150.5,4.5C 286.167,4.5 421.833,4.5 557.5,4.5 Z"/></g>
<g><path style="opacity:0.998" fill="#f6842a" d="M 557.5,4.5 C 643.167,4.5 728.833,4.5 814.5,4.5C 814.5,54.1667 814.5,103.833 814.5,153.5C 728.833,153.5 643.167,153.5 557.5,153.5C 557.5,103.833 557.5,54.1667 557.5,4.5 Z"/></g>
<g><path style="opacity:0.882" fill="#125ba4" d="M 120.5,7.5 C 130.167,7.5 139.833,7.5 149.5,7.5C 149.662,9.5273 149.495,11.5273 149,13.5C 134.085,28.7469 119.251,43.9136 104.5,59C 99.9167,59.9337 98.4167,58.1004 100,53.5C 112.194,40.6403 124.361,27.807 136.5,15C 132.167,14.3333 127.833,14.3333 123.5,15C 113.057,25.7732 102.723,36.4398 92.5,47C 88.4943,47.9874 86.661,46.4874 87,42.5C 98.0059,30.6612 109.173,18.9946 120.5,7.5 Z"/></g>
<g><path style="opacity:0.887" fill="#1159a4" d="M 56.5,82.5 C 54.8333,82.5 53.1667,82.5 51.5,82.5C 49.205,79.7029 46.705,77.0362 44,74.5C 42.877,71.0437 43.7104,68.2103 46.5,66C 39.3675,66.4042 33.5341,63.9042 29,58.5C 28.3333,57.1667 28.3333,55.8333 29,54.5C 33.1937,50.3063 37.3604,46.1396 41.5,42C 39.3333,39.8333 37.1667,37.6667 35,35.5C 34.5045,33.5273 34.3379,31.5273 34.5,29.5C 36.1992,29.3398 37.8659,29.5065 39.5,30C 41.8749,32.1759 44.2082,34.3426 46.5,36.5C 50.2902,32.2082 54.2902,28.0415 58.5,24C 59.8333,23.3333 61.1667,23.3333 62.5,24C 67.3321,28.8316 70.1655,34.6649 71,41.5C 72.5157,38.9938 74.6824,38.1605 77.5,39C 87.4218,48.944 97.2551,59.1106 107,69.5C 107.746,72.7894 106.58,75.2894 103.5,77C 110.267,76.3871 115.934,78.5538 120.5,83.5C 121.706,85.4841 121.706,87.4841 120.5,89.5C 116.833,93.5 113.167,97.5 109.5,101.5C 111.483,103.984 113.65,106.317 116,108.5C 116.934,113.083 115.1,114.583 110.5,113C 108.333,110.833 106.167,108.667 104,106.5C 99.5865,111.42 94.7531,115.753 89.5,119.5C 83.2485,115.326 80.0818,109.326 80,101.5C 75.6756,105.715 72.1756,105.048 69.5,99.5C 70.0505,95.9761 71.8838,94.9761 75,96.5C 82.6667,88.5 90.3333,80.5 98,72.5C 98.6667,71.8333 98.6667,71.1667 98,70.5C 89.9412,62.7767 82.2746,54.7767 75,46.5C 67.7254,54.7767 60.0588,62.7767 52,70.5C 52.7203,73.2652 54.3869,75.5985 57,77.5C 57.6397,79.265 57.4731,80.9317 56.5,82.5 Z M 59.5,32.5 C 60.7899,33.0577 61.6232,34.0577 62,35.5C 65.0027,46.6615 61.1693,54.4949 50.5,59C 45.5944,60.1846 41.261,59.1846 37.5,56C 44.9818,48.114 52.3151,40.2807 59.5,32.5 Z M 100.5,83.5 C 105.324,82.9711 109.657,84.1378 113.5,87C 105.721,94.7792 97.8874,102.613 90,110.5C 84.6022,97.9711 88.1022,88.9711 100.5,83.5 Z"/></g>
<g><path style="opacity:1" fill="#fffdfb" d="M 646.5,98.5 C 646.313,96.4357 645.813,94.4357 645,92.5C 644.5,99.8258 644.334,107.159 644.5,114.5C 644.489,116.017 643.823,117.184 642.5,118C 638.167,118.667 633.833,118.667 629.5,118C 628.667,117.167 627.833,116.333 627,115.5C 626.667,102.5 626.333,89.5 626,76.5C 624.471,73.484 621.971,72.1506 618.5,72.5C 615.153,72.6663 612.319,73.9997 610,76.5C 609.667,89.5 609.333,102.5 609,115.5C 606.604,118.013 603.604,119.013 600,118.5C 597.833,118.333 595.667,118.167 593.5,118C 593,117.5 592.5,117 592,116.5C 591.333,97.1667 591.333,77.8333 592,58.5C 596.609,56.4896 601.442,55.9896 606.5,57C 608.951,59.8452 611.617,59.8452 614.5,57C 633.77,53.2878 643.937,61.1212 645,80.5C 650.895,60.3037 664.061,52.637 684.5,57.5C 685.332,48.8525 685.832,40.1858 686,31.5C 686.5,31 687,30.5 687.5,30C 692.755,28.9532 697.755,29.4532 702.5,31.5C 703.333,47.8231 703.833,64.1565 704,80.5C 713.044,57.1451 729.21,50.3117 752.5,60C 769.535,72.6427 772.702,88.1427 762,106.5C 747.672,121.483 731.839,123.316 714.5,112C 708.845,106.674 705.345,100.174 704,92.5C 703.667,100.167 703.333,107.833 703,115.5C 702.167,116.333 701.333,117.167 700.5,118C 695.799,118.719 691.133,118.553 686.5,117.5C 667.357,122.926 654.024,116.592 646.5,98.5 Z"/></g>
<g><path style="opacity:1" fill="#fffbf8" d="M 575.5,34.5 C 585.575,34.74 589.409,39.74 587,49.5C 580.042,56.6376 574.042,55.9709 569,47.5C 567.992,41.5157 570.159,37.1824 575.5,34.5 Z"/></g>
<g><path style="opacity:1" fill="#fafbfd" d="M 205.5,50.5 C 213.557,50.0537 221.39,51.0537 229,53.5C 229.435,58.4486 228.935,63.282 227.5,68C 223.164,66.7903 218.664,65.9569 214,65.5C 209.658,64.7559 206.491,66.2559 204.5,70C 205.101,71.605 206.101,72.9384 207.5,74C 212.091,75.8637 216.757,77.5304 221.5,79C 232.159,84.9659 235.325,93.7993 231,105.5C 228.105,112.378 222.939,116.545 215.5,118C 206.389,118.971 197.389,118.471 188.5,116.5C 187.505,111.208 187.172,105.875 187.5,100.5C 190.688,100.618 193.688,101.451 196.5,103C 201.887,103.784 207.22,103.618 212.5,102.5C 213.833,100.167 213.833,97.8333 212.5,95.5C 206.041,92.9578 199.708,90.1244 193.5,87C 187.083,80.8466 184.916,73.3466 187,64.5C 190.78,56.5417 196.946,51.875 205.5,50.5 Z"/></g>
<g><path style="opacity:1" fill="#fbfcfd" d="M 421.5,50.5 C 451.441,49.9681 463.941,64.6348 459,94.5C 453.296,114.448 440.13,122.281 419.5,118C 408.058,114.222 401.224,106.389 399,94.5C 395.748,80.2151 398.915,67.7151 408.5,57C 412.657,54.2548 416.99,52.0881 421.5,50.5 Z"/></g>
<g><path style="opacity:1" fill="#f9fbfc" d="M 255.5,51.5 C 262.755,51.1868 269.921,51.5201 277,52.5C 284.809,74.0956 292.309,95.7623 299.5,117.5C 293.132,117.83 286.798,117.496 280.5,116.5C 279.167,112.833 277.833,109.167 276.5,105.5C 269.524,104.336 262.524,104.169 255.5,105C 253.665,109.004 252.332,113.17 251.5,117.5C 245.5,117.5 239.5,117.5 233.5,117.5C 240.221,95.338 247.554,73.338 255.5,51.5 Z"/></g>
<g><path style="opacity:1" fill="#fafbfd" d="M 306.5,116.5 C 306.5,99.8333 306.5,83.1667 306.5,66.5C 301.833,66.5 297.167,66.5 292.5,66.5C 291.176,61.7663 291.176,56.9329 292.5,52C 307.5,51.3333 322.5,51.3333 337.5,52C 338.469,56.7367 338.803,61.57 338.5,66.5C 333.833,66.5 329.167,66.5 324.5,66.5C 324.667,83.17 324.5,99.8367 324,116.5C 318.068,117.825 312.234,117.825 306.5,116.5 Z"/></g>
<g><path style="opacity:1" fill="#f8fafc" d="M 358.5,52.5 C 358.334,60.1739 358.5,67.8406 359,75.5C 359.717,74.9558 360.217,74.2891 360.5,73.5C 365.141,66.5178 369.807,59.5178 374.5,52.5C 381.468,51.503 388.468,51.1697 395.5,51.5C 395.509,53.3084 395.009,54.9751 394,56.5C 387.308,65.0252 380.808,73.6919 374.5,82.5C 382.653,93.9595 390.32,105.626 397.5,117.5C 390.159,117.666 382.826,117.5 375.5,117C 370.276,109.283 365.276,101.45 360.5,93.5C 360.44,92.9569 360.107,92.6236 359.5,92.5C 358.502,100.472 358.169,108.472 358.5,116.5C 352.766,117.825 346.932,117.825 341,116.5C 340.333,95.1667 340.333,73.8333 341,52.5C 346.932,51.1747 352.766,51.1747 358.5,52.5 Z"/></g>
<g><path style="opacity:1" fill="#fafbfd" d="M 523.5,116.5 C 523.667,102.829 523.5,89.1626 523,75.5C 522.392,77.1545 521.892,78.8211 521.5,80.5C 517.373,92.6708 513.706,105.004 510.5,117.5C 504.833,117.5 499.167,117.5 493.5,117.5C 489.982,104.108 486.148,90.7745 482,77.5C 481.5,90.8292 481.333,104.163 481.5,117.5C 475.575,117.808 469.741,117.475 464,116.5C 463.333,95.1667 463.333,73.8333 464,52.5C 472.755,51.3503 481.588,51.1837 490.5,52C 494.574,64.4591 498.574,76.9591 502.5,89.5C 507.087,77.0696 511.087,64.4029 514.5,51.5C 523.085,51.1834 531.585,51.5168 540,52.5C 540.5,74.1641 540.667,95.8308 540.5,117.5C 534.642,117.822 528.975,117.489 523.5,116.5 Z"/></g>
<g><path style="opacity:1" fill="#94b4d5" d="M 358.5,52.5 C 359.167,59.5 359.833,66.5 360.5,73.5C 360.217,74.2891 359.717,74.9558 359,75.5C 358.5,67.8406 358.334,60.1739 358.5,52.5 Z"/></g>
<g><path style="opacity:1" fill="#fffdfb" d="M 572.5,56.5 C 576.514,56.3345 580.514,56.5012 584.5,57C 585.333,57.8333 586.167,58.6667 587,59.5C 587.667,78.1667 587.667,96.8333 587,115.5C 586.167,116.333 585.333,117.167 584.5,118C 580.167,118.667 575.833,118.667 571.5,118C 571,117.5 570.5,117 570,116.5C 569.333,97.1667 569.333,77.8333 570,58.5C 570.995,57.9341 571.828,57.2674 572.5,56.5 Z"/></g>
<g><path style="opacity:0.872" fill="#0f59a4" d="M 64.5,60.5 C 66.1992,60.3398 67.8659,60.5065 69.5,61C 75,66.5 80.5,72 86,77.5C 86.9337,82.0833 85.1004,83.5833 80.5,82C 75.3333,76.8333 70.1667,71.6667 65,66.5C 64.5045,64.5273 64.3379,62.5273 64.5,60.5 Z"/></g>
<g><path style="opacity:1" fill="#195da6" d="M 425.5,65.5 C 433.976,65.1356 439.143,69.1356 441,77.5C 442.45,85.6763 441.117,93.343 437,100.5C 425.862,106.599 419.196,103.265 417,90.5C 416.107,84.3282 416.773,78.3282 419,72.5C 420.694,69.6424 422.861,67.309 425.5,65.5 Z"/></g>
<g><path style="opacity:1" fill="#6e98c6" d="M 292.5,66.5 C 297.167,66.5 301.833,66.5 306.5,66.5C 306.5,83.1667 306.5,99.8333 306.5,116.5C 305.504,100.342 305.17,84.0085 305.5,67.5C 300.968,67.8182 296.634,67.4849 292.5,66.5 Z"/></g>
<g><path style="opacity:1" fill="#2863aa" d="M 265.5,70.5 C 267.996,76.1995 269.996,82.1995 271.5,88.5C 267.893,89.4892 264.226,89.8226 260.5,89.5C 261.961,83.1171 263.627,76.7838 265.5,70.5 Z"/></g>
<g><path style="opacity:1" fill="#f68730" d="M 671.5,72.5 C 675.182,72.3347 678.848,72.5014 682.5,73C 683.416,73.3742 684.25,73.8742 685,74.5C 685.5,83.4938 685.666,92.4938 685.5,101.5C 669.427,105.261 662.26,98.9275 664,82.5C 665.213,78.1305 667.713,74.7972 671.5,72.5 Z"/></g>
<g><path style="opacity:1" fill="#f6852d" d="M 730.5,73.5 C 745.43,72.4024 751.263,79.069 748,93.5C 744.307,100.759 738.474,103.259 730.5,101C 723.156,96.4636 720.656,89.9636 723,81.5C 725.028,78.3078 727.528,75.6411 730.5,73.5 Z"/></g>
<g><path style="opacity:0.88" fill="#125ba4" d="M 51.5,82.5 C 53.1667,82.5 54.8333,82.5 56.5,82.5C 60.5167,81.8178 63.5167,79.6511 65.5,76C 71.5604,74.9343 72.8937,76.9343 69.5,82C 73.9534,82.1107 75.7867,84.2774 75,88.5C 60.1943,103.974 45.361,119.474 30.5,135C 20.8391,135.5 11.1724,135.666 1.5,135.5C 1.33788,133.473 1.50454,131.473 2,129.5C 16.736,114.22 31.5693,99.0534 46.5,84C 48.0249,82.9914 49.6916,82.4914 51.5,82.5 Z M 49.5,90.5 C 54.1785,90.3342 58.8452,90.5008 63.5,91C 50.7489,103.416 38.4156,116.082 26.5,129C 21.8333,129.667 17.1667,129.667 12.5,129C 25.3734,116.628 37.7068,103.794 49.5,90.5 Z"/></g>
<g><path style="opacity:1" fill="#78a0ca" d="M 523.5,116.5 C 522.833,104.5 522.167,92.5 521.5,80.5C 521.892,78.8211 522.392,77.1545 523,75.5C 523.5,89.1626 523.667,102.829 523.5,116.5 Z"/></g>
<g><path style="opacity:1" fill="#94b4d5" d="M 360.5,93.5 C 359.833,101.167 359.167,108.833 358.5,116.5C 358.169,108.472 358.502,100.472 359.5,92.5C 360.107,92.6236 360.44,92.9569 360.5,93.5 Z"/></g>
<g><path style="opacity:1" fill="#f9ad71" d="M 646.5,98.5 C 645.833,103.833 645.167,109.167 644.5,114.5C 644.334,107.159 644.5,99.8258 645,92.5C 645.813,94.4357 646.313,96.4357 646.5,98.5 Z"/></g>
</svg>
